<?xml version="1.0" encoding="UTF-8"?>
<svg id="Layer_2" data-name="Layer 2" xmlns="http://www.w3.org/2000/svg" viewBox="0 0 677.2 677.2">
  <defs>
    <style>
      .cls-1 {
        opacity: 0;
      }

      .cls-1, .cls-2 {
        fill: #f08fe5;
      }

      .cls-3 {
        fill: #f5d;
      }

      .cls-4 {
        fill: #fae;
      }

      .cls-5 {
        fill: #e180e5;
      }

      .cls-6 {
        fill: #ff80e5;
      }

      .cls-7 {
        fill: #e655dd;
      }

      .cls-8 {
        fill: #f6d5ff;
      }

      .cls-9 {
        fill: #dbd5ff;
      }

      .cls-10 {
        fill: #eaf;
      }

      .cls-11 {
        fill: #d8aaff;
      }
    </style>
  </defs>
  <g id="svg1">
    <path id="path1141-4" class="cls-8" d="M338.26,338.67s-35.99,73.71-6.86,149.14c29.14,75.43,150.83,142.28,150.83,142.28,0,0,32.56-104.57-13.71-169.71-46.28-65.14-130.26-121.71-130.26-121.71h0Z"/>
    <path id="path1142-8" class="cls-4" d="M338.6,338.63s47.36,67.67,126.48,77.7c79.12,10.03,193.81-67.14,193.81-67.14,0,0-59.6-70.03-153.92-69.11-139.67,6.85-166.36,58.54-166.36,58.54h0Z"/>
    <path id="path1143-9" class="cls-10" d="M338.6,338.61s-83.46-2.22-141.04,55.15c-57.59,57.37-68.22,194.91-68.22,194.91,0,0,110.59-13.57,151.43-82.21,40.83-68.64,57.83-167.85,57.83-167.85Z"/>
    <path id="path1144-4" class="cls-6" d="M338.6,338.68s-27.45-24.85-46.19-66.7c-12.81-28.6-20.26-77.77-58.76-111.87-51.51-45.64-146.89-25.84-146.89-25.84,0,0-19.22,107.04,63.99,158.06,83.07,50.93,187.85,46.35,187.85,46.35h0Z"/>
    <path id="path1145-0" class="cls-6" d="M338.53,338.6s27.26-25.18,71.7-39.63c30.37-9.88,87.36-12.65,125.75-47.36,51.37-46.46,34.59-141.94,34.59-141.94,0,0-107.38-29.39-167.19,47.86-78.22,84.42-64.85,181.08-64.85,181.08h0Z"/>
    <path id="path1146-3" class="cls-3" d="M338.64,338.6c-8.4-97.9,37.36-99.26,40.04-193.05,2.12-73.93-59.84-132.94-59.84-132.94,0,0-74.83,68.89-54.94,172.6,19.86,103.53,74.74,153.4,74.74,153.4h0Z"/>
    <path id="path1135-1" class="cls-5" d="M129.71,241.4s32.31,13.59,62.26,31.65c27.81,16.76,60.09,42.51,77.93,46.06,32.78,6.54,33.05-34.63-2.85-70.61-34.63-34.71-107.74-57.44-107.76-59.5-.09-9.17,18.92-10.11,37.66-8.16,18.68,1.94,35.58,6.87,35.58,6.87,0,0-29.12-12.11-64.92-18.27-35.81-6.16-73.69-6.52-70.74,5.84,3.92,16.4,55.68,43.06,87.54,64.65,34.62,23.46,58.26,47.18,60.47,47.44-11.92-1.39-39.21-15.86-63.5-26.34-25.4-10.95-51.68-19.65-51.68-19.65h0Z"/>
    <path id="path1137-7" class="cls-2" d="M396.84,282.05s-7.1,1.89,18.53-3.98c25.61-5.87,31.2-9.41,27.22-15.66-2.88-4.52-14.55-6.68-15.65-3.58,1.55-4.36,14.06-5.23,26.35-3.78,11.91,1.41,24.33,5.63,35.01-.69,18.08-10.71,21.23-36.26,9.9-49.01-11.27-12.69-38.84-10.26-38.44-11.08,4.17-8.51,42.02-14.19,62.65-7.36,20.65,6.84,29.43,25.75,37.99-.19,12.99-39.34-1.45-58.49-34.74-56.59-31.61,1.8-75.66,22.79-75.66,22.79,0,0,30.98-9.49,51.9-9,22.43.52,33.99,10.61,33.79,14.55-.59,11.4-21,5.54-56.14,14.23-34.59,8.56-86.85,32.96-90.02,41.9-4.07,11.49,20.31,9.48,38.12,10.55,18.38,1.11,32.1,5.21,31.69,5.49-8.63,5.84-26.17,6.57-46.46,12.43-20.42,5.9-42.07,15.65-42.72,21.73-1.18,11.08-12.55,16.96-18.73,20.23-10.3,5.44-3.33,6.94,11.74,0-3.13,1.44,5.8-4.38,15.49-4.46,9.83-.08,18.18,1.49,18.18,1.49h0Z"/>
    <path id="path1138-2" class="cls-6" d="M360.55,340.2s12.61,2.77,21.67,3.68c18.6,1.86,6.02-.38,5.45-.45,5.37.72,1.67,3.81-1.03,8.55-2.64,4.62-4.26,10.92,6.47,19.34,18.87,14.78,40.82,13.44,56.25,3.01,15.13-10.23,22.54-27.88,18.59-28.87,2.87.72-3.9,13.75-8.58,24.24-4.45,9.99-7.69,20.58,6.47,20.25,46.74-1.09,53.81-37.96,55.7-36.86,11.45,6.65,7.44,23.47,25.36,17.29,14.57-5.03,15.47-1.61,16.77,3.79,1.31,5.46,8.83,11.55,4.7,10.7,12.62,2.61,3.23-33.76,9.56-36.77,7.45-3.53-3.29,2.33,7.14,16.94-8.32,2.4,6.59,23.23,2.87,17.22.03.05,2.3-2.84,4.39-5.51,2.27-2.91,3.45-6.51,3.33-10.2-.28-8.9-1.35-25.56-5.38-32.02-11.78-18.94,7.21-15.87-7.83-31.57-5.31,10.74-3.55,32.32-10.89,24.05-14.82-16.69-15.85-9.11-15.18-9.61-8.95,6.65-7.03-5.9-23.3-13.06-11.92-5.25-24.01,12.54-33.08,27.23-9.25,14.98-16.26,28.87-13.62,28.04-6.22,1.96-2.4-9.43.5-22.28,2.96-13.11,5.07-27.96-1.3-28.18-11.23-.38-28.16,15.84-40.74,26.55-13.45,11.46-24.94,20.12-23.42,21.15-5.22-3.56.33-11.29,3.42-18.63,3.38-8.04,3.5-12.78-9.86-11.3-59.46,6.6-54.43,13.27-54.43,13.27h0Z"/>
    <path id="path1136-3" class="cls-7" d="M271.1,180.89s15.46-7.54,24.59-20.59c8.98-12.82,12.47-30.54,8.3-29.23,3.02-.95,1.86,26.28-6.18,46.3-8.22,20.46-25.11,33.71-22.45,39.88,6.35,14.7,39.59,6.84,52.52-20.07,12.56-26.13,7.18-76.51.44-75.08.04,0,3.38,42.05-7.26,70.32-10.64,28.27-35.71,42.31-32.46,47.92,8.11,14.04,46.97,5.86,60.41-27.34,13.64-33.68.31-96.02-5.63-100.92-.34-.28,8.66,52.48.27,87.8-8.39,35.32-34.54,52.83-29.45,59.84,9.79,13.49,18.55,12.96,23.83,7.97,5.28-4.99,6.87-14.62,6.87-14.62,0,0-12.61-19.11-6.69-11.09-2.09-2.82,17.12-27.84,16.33-73.06-.78-45.21-21.25-110.31-24.49-112.95-8.59-7.01,5.22,52.17,2.46,94.45-2.76,42.28-22.18,67.55-18.45,73.67-.74-1.22,19.21-22.69,21.37-61.22,2.08-37.18-11.59-93.64-15.08-91.38-6.54,4.23-3.51,43.07-8.33,71.93-4.82,28.87-16.48,48.8-13.19,55.53-.71-1.46,13.29-20.63,15.35-49.55,2.07-29.02-6.09-65.74-11.03-61.59-7.9,6.65-12.95,39.75-18.19,57.94-6,20.85-13.87,35.14-13.87,35.14h0Z"/>
    <path id="path1139-5" class="cls-9" d="M418.33,413.77s-22.64-16.59-44.75-25.18c-22.37-8.68-41.93-18.9-42.89-7.13-1.83,22.47,12.11,41.17,29.02,52.65,16.66,11.31,35.46,14.99,35.92,16.12,3.95,9.7-14.74,11.5-32.99,11.8-18.11.3-34.28-1.18-33.08,11.62,2.18,23.14,23.6,38.9,49.83,43.51,25.72,4.52,52.28-1.68,50.8-8.72-.07-.36-21.9.5-39.72,2.11-17.09,1.55-32.9,4.92-22.58,17.44,33.6,40.76,87.84,27.91,88.24,24.58-.58,4.85-14.55,9.91-25.95,14.51-11.18,4.51-20.77,9.06-12.75,14.42,19.8,10.4,10.99-4.47,22.28,7.19,3,5.36,1.78,10.58,1.78,10.58,0,0,2.3.16,18.39-4.4,15.99-4.54,24.16-7.79,27.58-13.86,14.72-26.15-18.21-17.96-5.67-13.32-5.91-2.2,4.92-11.55,6.06-28.16.95-13.71-11.63-16.49-36.78-15.26-25.56,1.25-29.64,2.69-27.93,4-6.51-4.99,10.35-8.56,28.93-13.24,18.67-4.7,30.05-13.25,28.73-16.97-3.1-8.78-26.34-7.04-53.61-8.93-27.98-1.94-52.25-5.07-51.73-2.47-1.09-5.49,19.45-4.9,40.34-8.65,21.22-3.81,40.54-11.23,32.63-23.71-26.92-42.49-76.71-53.88-76.79-50.45.11-4.68,17.53-1.2,21.05-.61,5.63.94,25.63,10.57,25.63,10.57h0Z"/>
    <path id="path1140-7" class="cls-11" d="M308.98,358.39s-27.27,20.12-43.31,46.85c-15.93,26.57-21.92,58.45-14.61,52.98-2.84,2.13-1.44-15.82-3.51-29.72-1.83-12.28-8.94-26.23-30.95-10.74-63.61,44.75-50.14,66.93-35.04,63.26.23-.07-1.79-41.95-13.35-26.95-26.44,34.32,12.22,114.8,12.22,114.8,0,0-1.37-22.33-1.71-40.34-.32-17.15-.28-33.08-5.38-22.39,1.18-2.47,7.12,32.06,15.46,28.65,21.18-8.65,18.01-67.4,23.11-72.86,11.5-12.33,16.23,3.31,20.22,18.06,4.29,15.86,8.4,32.32,15.91,23.74,12.63-14.44,26.06-64.2,36.17-91.02,11.84-31.42,24.76-54.32,24.76-54.32h0Z"/>
    <circle class="cls-1" cx="338.6" cy="338.6" r="338.6"/>
  </g>
</svg>