<?xml version="1.0" encoding="UTF-8" standalone="no"?>
<!-- Created with Inkscape (http://www.inkscape.org/) -->

<svg
   width="171.11458"
   height="102.6886"
   viewBox="0 0 45.274065 27.169691"
   version="1.1"
   id="svg1"
   xml:space="preserve"
   inkscape:version="1.3.2 (091e20e, 2023-11-25, custom)"
   sodipodi:docname="editc.svg"
   inkscape:export-filename="..\sirup_add\e_background.png"
   inkscape:export-xdpi="96"
   inkscape:export-ydpi="96"
   xmlns:inkscape="http://www.inkscape.org/namespaces/inkscape"
   xmlns:sodipodi="http://sodipodi.sourceforge.net/DTD/sodipodi-0.dtd"
   xmlns="http://www.w3.org/2000/svg"
   xmlns:svg="http://www.w3.org/2000/svg"><sodipodi:namedview
     id="namedview1"
     pagecolor="#ffffff"
     bordercolor="#000000"
     borderopacity="0.25"
     inkscape:showpageshadow="2"
     inkscape:pageopacity="0.0"
     inkscape:pagecheckerboard="0"
     inkscape:deskcolor="#d1d1d1"
     inkscape:document-units="mm"
     inkscape:zoom="0.3535534"
     inkscape:cx="497.80316"
     inkscape:cy="298.39905"
     inkscape:window-width="1920"
     inkscape:window-height="1009"
     inkscape:window-x="1912"
     inkscape:window-y="-8"
     inkscape:window-maximized="1"
     inkscape:current-layer="layer1" /><defs
     id="defs1" /><g
     inkscape:label="Layer 1"
     inkscape:groupmode="layer"
     id="layer1"
     transform="translate(-10.576649,54.164685)"><g
       id="g10"
       transform="matrix(2.8025431,0,0,2.8025431,-756.67807,-231.25794)"
       style="opacity:0.5;fill:#808080;stroke:none"><path
         id="path130-7"
         style="display:inline;opacity:0.2;fill:none;stroke:#000000;stroke-width:0.151664;stroke-linecap:round;stroke-linejoin:round;stroke-dasharray:none;stroke-opacity:0.989247"
         d="m 275.89906,69.223289 c -0.17647,-0.471397 -0.3753,-1.18395 -0.34866,-1.843183 0.0392,-0.970594 0.30669,-1.605903 0.30669,-1.605903 l 0.47284,0.231247 c 0,0 -0.12114,-0.221409 0.33885,-0.935907 0.45999,-0.71449 0.77893,-0.955546 0.77893,-0.955546 l 0.69637,0.530693 c 0,0 0.40615,-0.561883 1.15112,-0.930105 0.74497,-0.368219 1.23244,-0.448557 1.23244,-0.448557 0,0 -0.68709,0.944649 -0.022,0.733626 1.60037,-0.507728 3.44827,-0.05893 3.44827,-0.05893 0,0 -0.11805,0.544737 0.0749,0.573457 1.7292,0.257402 2.96046,1.270975 3.37774,1.573614 l -0.28794,0.619694 c 1.23271,0.155538 1.66924,0.533038 2.7311,1.564933 -0.88821,-0.153914 -1.76317,0.292102 -2.67348,0.921823 l 0.55678,0.240646 -2.70125,1.12658 0.55354,0.348755 c -0.884,0.478808 -1.81982,0.687971 -2.77321,0.820676 l 0.31929,0.833272 c -0.58448,-0.01285 -1.60715,-0.339956 -2.57669,-0.480692 -0.25737,-0.03737 -0.21716,0.175266 -0.0461,0.725541 -0.61435,-0.0029 -1.43961,-0.233749 -2.07076,-0.889542 -0.14182,-0.147363 -0.30766,0.534414 -0.48141,0.413389 -0.7945,-0.553423 -1.21968,-1.060455 -1.60338,-1.98615"
         sodipodi:nodetypes="csccsccscscccccccccccccssc" /><path
         id="path131-2"
         style="display:inline;opacity:0.2;fill:#000000;fill-rule:nonzero;stroke:none;stroke-width:0.32522;stroke-dasharray:none;stroke-opacity:0.989247"
         d="m 273.77327,70.471705 0.445,0.884686 c 1.08339,-0.648968 2.13719,-1.183108 3.11413,-1.61665 0.023,0.09537 0.0647,0.188233 0.13301,0.272777 0.12707,0.1572 0.32556,0.261602 0.58226,0.324869 0.002,7.14e-4 0.005,0.0011 0.007,0.0018 0.39032,0.07936 0.92025,0.222754 1.10556,0.256952 0.058,0.0107 0.10014,0.01427 0.12018,0.01709 -0.0147,-0.0063 -0.0401,-0.0207 -0.088,-0.03792 -0.15312,-0.05504 -0.69122,-0.193164 -1.02979,-0.306012 -0.002,-3.56e-4 -0.004,-0.0011 -0.007,-0.0021 -0.23646,-0.06924 -0.39243,-0.193628 -0.46067,-0.368812 -0.0367,-0.09412 -0.0452,-0.196218 -0.0356,-0.299364 0.19356,-0.08291 0.3847,-0.163287 0.571,-0.238141 0.0489,0.174799 0.1432,0.359474 0.31193,0.536692 0.20942,0.219957 0.50023,0.394716 0.85783,0.534882 0.003,0.0011 0.007,0.0025 0.0101,0.0038 0.53943,0.192978 1.28075,0.497651 1.53595,0.585115 0.0799,0.02733 0.13697,0.04216 0.16436,0.05059 -0.0211,-0.01124 -0.0586,-0.03483 -0.12677,-0.06748 -0.21776,-0.104302 -0.9687,-0.404629 -1.44794,-0.624676 -0.003,-0.0011 -0.006,-0.0025 -0.009,-0.0042 -0.33222,-0.142217 -0.57163,-0.330189 -0.70746,-0.556883 -0.12078,-0.201589 -0.14584,-0.410149 -0.12422,-0.598885 0.002,-0.01413 0.004,-0.02794 0.006,-0.04174 0.22884,-0.08695 0.45781,-0.174931 0.68591,-0.254201 0.0428,0.09093 0.13225,0.240328 0.2845,0.413849 0.31549,0.359562 0.76569,0.673641 1.42718,0.929434 l 0.009,0.0036 c 0.60938,0.215323 1.46191,0.56974 1.74874,0.665913 0.0897,0.03008 0.15202,0.04458 0.18243,0.05348 -0.0253,-0.01388 -0.0715,-0.04394 -0.15161,-0.0834 -0.25611,-0.126104 -1.11645,-0.472899 -1.67643,-0.736349 l -0.009,-0.0038 c -0.61449,-0.269934 -0.97477,-0.700885 -1.14711,-1.124429 -0.0461,-0.113204 -0.0746,-0.21635 -0.0937,-0.304252 0.24592,-0.07865 0.49134,-0.153265 0.73611,-0.223415 0.0835,-0.02394 0.18242,0.415048 0.62534,0.719735 0.34898,0.240072 1.88977,0.620044 2.74264,0.790001 -0.82473,-0.348841 -1.90822,-0.715054 -2.43882,-0.994197 -0.53494,-0.28143 -0.41265,-0.657146 -0.36088,-0.670523 0.34158,-0.08828 0.68164,-0.167149 1.01976,-0.235397 0.10261,-0.0207 0.20811,-0.03937 0.31229,-0.05899 0.0248,0.02462 0.0618,0.05461 0.11546,0.09368 0.23139,0.168454 0.56714,0.325786 1.13346,0.468382 l 0.006,0.0018 c 0.50308,0.114475 1.21843,0.316573 1.4541,0.366381 0.0737,0.01556 0.12346,0.02127 0.14817,0.02555 -0.0219,-0.0087 -0.0632,-0.02815 -0.13173,-0.05201 -0.21918,-0.07618 -0.93875,-0.271518 -1.41533,-0.428396 l -0.006,-0.0021 c -0.42009,-0.128997 -0.68778,-0.349472 -0.84411,-0.555713 0.1436,-0.02419 0.28695,-0.04871 0.43312,-0.07069 1.44591,-0.217381 2.63062,-0.265266 3.40843,-0.276641 0.73163,-0.01071 0.88743,-0.0088 0.88974,-0.02655 0.002,-0.01777 -0.14653,-0.08408 -0.88299,-0.149617 -0.78153,-0.06954 -1.98609,-0.100227 -3.46676,0.03365 -0.23516,0.02127 -0.46673,0.04654 -0.69596,0.07395 -0.0122,-0.03601 -0.0231,-0.07623 -0.0297,-0.120573 -0.0335,-0.2242 0.0491,-0.476435 0.34702,-0.690412 10e-4,-7.14e-4 0.003,-0.0021 0.004,-0.0029 0.25775,-0.194862 0.66522,-0.470009 0.78199,-0.561475 0.0365,-0.02865 0.0562,-0.04829 0.0674,-0.05792 -0.015,0.0083 -0.0467,0.0238 -0.0904,0.04998 -0.13967,0.08365 -0.54129,0.360915 -0.83585,0.543199 l -0.004,0.0029 c -0.32588,0.214662 -0.48787,0.440771 -0.5414,0.66916 -0.0196,0.08357 -0.0216,0.155783 -0.0174,0.20926 -0.0748,0.0099 -0.15102,0.01866 -0.22511,0.02915 -0.38503,0.05464 -0.78881,0.122503 -1.20047,0.19787 -0.033,-0.07713 -0.0735,-0.19433 -0.084,-0.347738 -0.0247,-0.363177 0.12816,-0.816908 0.59973,-1.286963 0.002,-0.0021 0.004,-0.0044 0.006,-0.0066 0.40912,-0.422984 1.05208,-1.036644 1.23778,-1.233612 0.0581,-0.06163 0.0899,-0.10169 0.10785,-0.122036 -0.0236,0.01959 -0.0729,0.05732 -0.14144,0.117529 -0.21919,0.192436 -0.85361,0.807267 -1.31657,1.222961 l -0.007,0.0066 c -0.51364,0.481673 -0.78266,0.921363 -0.88903,1.324118 -0.0511,0.193378 -0.0543,0.342225 -0.0465,0.428618 -0.27869,0.05686 -0.56311,0.122121 -0.85101,0.191323 -0.0435,-0.06194 -0.12707,-0.185011 -0.17313,-0.377853 -0.0846,-0.354271 -0.009,-0.826639 0.37828,-1.366666 0.002,-0.0025 0.004,-0.0049 0.005,-0.0077 0.33343,-0.483489 0.86591,-1.193002 1.01643,-1.417369 0.0471,-0.0702 0.0718,-0.114914 0.0862,-0.137893 -0.02,0.02316 -0.0623,0.06839 -0.12,0.138899 -0.1843,0.22532 -0.70829,0.934476 -1.09603,1.419478 l -0.006,0.0075 c -0.42681,0.5583 -0.6192,1.035617 -0.65734,1.450137 -0.0179,0.19529 0.002,0.34104 0.0238,0.425806 -0.22103,0.05869 -0.44533,0.124073 -0.67049,0.19128 -0.0346,-0.02858 -0.0694,-0.06021 -0.10315,-0.09685 -0.11163,-0.121354 -0.20743,-0.285508 -0.2454,-0.503407 -0.0427,-0.24502 -0.006,-0.525868 0.10632,-0.831155 10e-4,-0.0029 0.002,-0.0057 0.003,-0.0087 0.1548,-0.451005 0.42066,-1.126038 0.48872,-1.334056 0.0213,-0.0651 0.0301,-0.104955 0.0362,-0.125943 -0.011,0.02284 -0.0355,0.06833 -0.0662,0.136865 -0.0981,0.218972 -0.35635,0.891251 -0.55939,1.359876 -10e-4,0.0029 -0.002,0.006 -0.004,0.009 -0.12817,0.319392 -0.20044,0.622531 -0.20287,0.907914 -0.002,0.24967 0.0499,0.4521 0.12347,0.613536 -0.1037,0.03325 -0.20754,0.06672 -0.31195,0.101932 -0.0816,-0.03422 -0.24005,-0.104911 -0.37521,-0.261666 -0.10737,-0.124526 -0.19395,-0.297908 -0.21444,-0.535888 -0.023,-0.267614 0.0408,-0.581907 0.18811,-0.930034 10e-4,-0.0032 0.003,-0.0066 0.004,-0.0099 0.20512,-0.513262 0.54843,-1.284387 0.6395,-1.520818 0.0285,-0.074 0.0415,-0.118928 0.0498,-0.142703 -0.0137,0.02626 -0.0439,0.07885 -0.0827,0.157475 -0.1239,0.251233 -0.45885,1.018657 -0.71673,1.555705 -10e-4,0.0036 -0.003,0.0069 -0.005,0.01035 -0.16491,0.365122 -0.26901,0.70714 -0.2975,1.023445 -0.0253,0.28041 0.0126,0.502504 0.0776,0.675804 0.0295,0.0786 0.0643,0.144869 0.0997,0.201713 -1.06714,0.397932 -2.16375,0.909988 -3.26268,1.564051 z"
         sodipodi:nodetypes="cccsccsccccsccsccccsccssccsscscsccscsscsssccccscccccssssscsccsccccscscsccscscssccsccscsccscccsccscsccsccssccscsccssccc" /></g></g></svg>
