<?xml version="1.0" encoding="UTF-8" standalone="no"?>
<!-- Created with Inkscape (http://www.inkscape.org/) -->

<svg
   width="119.71742"
   height="124.19456"
   viewBox="0 0 31.675234 32.85981"
   version="1.1"
   id="svg1"
   xml:space="preserve"
   inkscape:version="1.3.2 (091e20e, 2023-11-25, custom)"
   sodipodi:docname="editc.svg"
   inkscape:export-filename="..\sirup_add\e_background.png"
   inkscape:export-xdpi="96"
   inkscape:export-ydpi="96"
   xmlns:inkscape="http://www.inkscape.org/namespaces/inkscape"
   xmlns:sodipodi="http://sodipodi.sourceforge.net/DTD/sodipodi-0.dtd"
   xmlns="http://www.w3.org/2000/svg"
   xmlns:svg="http://www.w3.org/2000/svg"><sodipodi:namedview
     id="namedview1"
     pagecolor="#ffffff"
     bordercolor="#000000"
     borderopacity="0.25"
     inkscape:showpageshadow="2"
     inkscape:pageopacity="0.0"
     inkscape:pagecheckerboard="0"
     inkscape:deskcolor="#d1d1d1"
     inkscape:document-units="mm"
     inkscape:zoom="0.3535534"
     inkscape:cx="497.80316"
     inkscape:cy="298.39905"
     inkscape:window-width="1920"
     inkscape:window-height="1009"
     inkscape:window-x="1912"
     inkscape:window-y="-8"
     inkscape:window-maximized="1"
     inkscape:current-layer="layer1" /><defs
     id="defs1" /><g
     inkscape:label="Layer 1"
     inkscape:groupmode="layer"
     id="layer1"
     transform="translate(12.289789,99.063203)"><g
       id="g11"
       transform="translate(8.6154229,-6.6387977)"><path
         style="opacity:0.2;fill:#808080;fill-opacity:1;stroke:none;stroke-width:2.13834;stroke-linecap:square;stroke-linejoin:round;stroke-opacity:0.5"
         d="m -6.7995973,-75.321607 c 0,0 -1.9464503,3.985598 -0.3707485,8.063881 1.5757019,4.078283 8.15657752,7.693127 8.15657752,7.693127 0,0 1.76106208,-5.653985 -0.74152487,-9.176138 -2.50255885,-3.522154 -7.04430415,-6.58087 -7.04430415,-6.58087 z"
         id="path1427-9"
         inkscape:transform-center-x="-1.6205728"
         inkscape:transform-center-y="3.1419269" /><path
         style="opacity:0.2;fill:#808080;fill-opacity:1;stroke:none;stroke-width:2.13834;stroke-linecap:square;stroke-linejoin:round;stroke-opacity:0.5"
         d="m -6.7966547,-75.487391 c 0,0 2.597453,3.595411 6.93696682,4.128255 4.33948578,0.532842 10.62970988,-3.566948 10.62970988,-3.566948 0,0 -4.1562277,-4.218385 -8.4421849,-3.671634 -4.2859572,0.546732 -9.1244918,3.110327 -9.1244918,3.110327 z"
         id="path1428-1"
         inkscape:transform-center-x="-3.567513"
         inkscape:transform-center-y="0.10571646" /><path
         style="opacity:0.2;fill:#808080;fill-opacity:1;stroke:none;stroke-width:2.13834;stroke-linecap:square;stroke-linejoin:round;stroke-opacity:0.5"
         d="m -6.9396404,-75.247381 c 0,0 -4.4338756,-0.120986 -7.4933556,3.002269 -3.05948,3.123263 -3.624193,10.610324 -3.624193,10.610324 0,0 5.875644,-0.738711 8.045037,-4.475302 2.1694481,-3.73658 3.0725116,-9.137291 3.0725116,-9.137291 z"
         id="path1429-0"
         inkscape:transform-center-x="2.186672"
         inkscape:transform-center-y="2.8187898" /><path
         style="opacity:0.2;fill:#808080;fill-opacity:1;stroke:none;stroke-width:2.13834;stroke-linecap:square;stroke-linejoin:round;stroke-opacity:0.5"
         d="m -6.4616387,-75.091745 c 0,0 -1.7795308,-1.350481 -2.8464309,-3.817445 -0.7291654,-1.686012 -0.9361894,-4.697768 -3.1271614,-6.70806 -2.931993,-2.690206 -8.360715,-1.522913 -8.360715,-1.522913 0,0 -1.094113,6.30937 3.642045,9.316171 4.728226,3.001768 10.6922623,2.732247 10.6922623,2.732247 z"
         id="path1430-3"
         inkscape:transform-center-x="2.8259583"
         inkscape:transform-center-y="-2.1766609"
         sodipodi:nodetypes="csscsc" /><path
         style="opacity:0.2;fill:#808080;fill-opacity:1;stroke:none;stroke-width:2.13834;stroke-linecap:square;stroke-linejoin:round;stroke-opacity:0.5"
         d="m -6.902815,-75.14286 c 0,0 1.5127007,-1.64386 4.0694888,-2.472709 1.7473856,-0.566473 4.76522,-0.487786 6.9736801,-2.478853 2.9554218,-2.664473 2.3066891,-8.17925 2.3066891,-8.17925 0,0 -6.17764575,-1.685808 -9.6188043,2.744814 -3.4354415,4.423198 -3.7310537,10.385998 -3.7310537,10.385998 z"
         id="path1431-7"
         inkscape:transform-center-x="-2.399413"
         inkscape:transform-center-y="-2.6483797"
         sodipodi:nodetypes="csscsc" /><path
         style="opacity:0.2;fill:#808080;fill-opacity:1;stroke:none;stroke-width:2.13834;stroke-linecap:square;stroke-linejoin:round;stroke-opacity:0.5"
         d="m -6.7395949,-75.105026 c -0.4463891,-5.201184 1.5920126,-5.467201 1.734606,-10.449831 0.112382,-3.927913 -2.7865125,-6.869549 -2.7865125,-6.869549 0,0 -3.4434286,3.265708 -2.3865616,8.77525 1.0550453,5.500347 3.4384681,8.54413 3.4384681,8.54413 z"
         id="path1432-7"
         inkscape:transform-center-x="0.52318366"
         inkscape:transform-center-y="-3.505403"
         sodipodi:nodetypes="cscsc" /></g></g></svg>
