<?xml version="1.0" encoding="UTF-8" standalone="no"?>
<!-- Created with Inkscape (http://www.inkscape.org/) -->

<svg
   width="98.069405"
   height="51.837097"
   viewBox="0 0 25.94753 13.715232"
   version="1.1"
   id="svg1"
   xml:space="preserve"
   inkscape:version="1.3.2 (091e20e, 2023-11-25, custom)"
   sodipodi:docname="editc.svg"
   inkscape:export-filename="..\sirup_add\e_background.png"
   inkscape:export-xdpi="96"
   inkscape:export-ydpi="96"
   xmlns:inkscape="http://www.inkscape.org/namespaces/inkscape"
   xmlns:sodipodi="http://sodipodi.sourceforge.net/DTD/sodipodi-0.dtd"
   xmlns="http://www.w3.org/2000/svg"
   xmlns:svg="http://www.w3.org/2000/svg"><sodipodi:namedview
     id="namedview1"
     pagecolor="#ffffff"
     bordercolor="#000000"
     borderopacity="0.25"
     inkscape:showpageshadow="2"
     inkscape:pageopacity="0.0"
     inkscape:pagecheckerboard="0"
     inkscape:deskcolor="#d1d1d1"
     inkscape:document-units="mm"
     inkscape:zoom="0.3535534"
     inkscape:cx="497.80316"
     inkscape:cy="298.39905"
     inkscape:window-width="1920"
     inkscape:window-height="1009"
     inkscape:window-x="1912"
     inkscape:window-y="-8"
     inkscape:window-maximized="1"
     inkscape:current-layer="layer1" /><defs
     id="defs1" /><g
     inkscape:label="Layer 1"
     inkscape:groupmode="layer"
     id="layer1"
     transform="translate(-89.164575,88.924417)"><g
       id="g8"
       transform="translate(-5.1108305,-2.2052842)"
       style="opacity:0.5"><path
         id="path321-7"
         style="display:inline;opacity:0.2;fill:#000000;fill-rule:nonzero;stroke:none;stroke-width:0.751904;stroke-dasharray:none;stroke-opacity:0.989247"
         d="m 109.88464,-84.612044 v 7.47e-4 c 0.0127,0.03211 0.0329,0.09556 0.0763,0.192647 0.13887,0.310227 0.6571,1.274133 0.96896,1.939915 l 0.008,0.01529 c 0.6882,1.345477 0.91996,2.356533 0.95063,2.938382 0.003,0.02773 0.003,0.04784 0.003,0.07246 -0.43958,-0.173605 -0.8751,-0.333702 -1.30795,-0.486823 -0.0251,-0.0702 -0.10132,-0.193749 -0.25237,-0.426029 -0.388,-0.596506 -0.97883,-1.350135 -2.06175,-2.525915 l -0.012,-0.01268 c -0.53347,-0.540095 -1.25834,-1.357089 -1.51153,-1.605357 -0.0792,-0.07771 -0.13682,-0.124124 -0.16422,-0.148958 0.02,0.02814 0.0549,0.0848 0.12056,0.168673 0.20972,0.267997 0.94567,1.080044 1.40926,1.651866 l 0.0113,0.01301 c 0.97842,1.124852 1.44779,2.039542 1.62439,2.599475 -0.76725,-0.252679 -1.51951,-0.477476 -2.24621,-0.67402 0.012,-0.03324 -0.0572,-0.119178 -0.26696,-0.358876 -0.38884,-0.444367 -0.97009,-1.012656 -2.02061,-1.91098 l -0.0115,-0.01002 c -0.5147,-0.415193 -1.22011,-1.037381 -1.4638,-1.228794 -0.0763,-0.0599 -0.13091,-0.09645 -0.15713,-0.115737 0.02,0.02112 0.055,0.0633 0.11963,0.126565 0.20632,0.202129 0.92128,0.82165 1.37589,1.254077 l 0.011,0.0099 c 0.96789,0.868197 1.453,1.54874 1.64485,1.950458 0.0185,0.0386 0.0326,0.07077 0.0457,0.101113 -0.31169,-0.07886 -0.62998,-0.163498 -0.93038,-0.233305 -0.39197,-0.09106 -0.73633,-0.160973 -1.09333,-0.236248 -0.0282,-0.03521 -0.0997,-0.09929 -0.23841,-0.219739 -0.36235,-0.314625 -0.89656,-0.723206 -1.85279,-1.378775 l -0.0108,-0.0074 c -0.46662,-0.305163 -1.11004,-0.757522 -1.33059,-0.898674 -0.0691,-0.04418 -0.11805,-0.07173 -0.14167,-0.08609 0.0185,0.015 0.0514,0.04473 0.11083,0.09019 0.18973,0.145292 0.84092,0.596558 1.25796,0.908355 l 0.01,0.0074 c 0.88405,0.630096 1.34537,1.103629 1.5378,1.376235 0.021,0.02979 0.0382,0.05546 0.0527,0.07795 -0.005,-7.46e-4 -0.0115,-0.0028 -0.0168,-0.0035 -1.7921,-0.361124 -3.22038,-0.549728 -4.17221,-0.639625 -0.88851,-0.08391 -1.07436,-0.06703 -1.07523,-0.05307 0,0.01398 0.18252,0.02979 1.06137,0.164254 0.91848,0.140542 2.377,0.397319 4.10896,0.855725 -0.42711,0.218083 -1.29293,0.486346 -2.7077,0.608152 l -0.016,0.0018 c -0.68019,0.07804 -1.71125,0.149795 -2.02373,0.190166 -0.0978,0.01256 -0.15593,0.02595 -0.18718,0.03119 0.0356,1.74e-4 0.10755,0.0035 0.21359,0.0018 0.33884,-0.0077 1.36309,-0.08757 2.08573,-0.113076 l 0.0165,-7.46e-4 c 1.50741,-0.09509 2.38688,-0.208043 3.01631,-0.33769 0.35109,-0.0723 0.4643,-0.100515 0.4679,-0.13793 0.25988,0.07632 0.52651,0.156829 0.80292,0.244737 0.34021,0.108243 0.70376,0.236373 1.06443,0.362149 -0.48375,0.440638 -1.33416,1.018783 -2.59845,1.509019 l -0.016,0.0063 c -0.66391,0.286828 -1.65886,0.646838 -1.96492,0.785845 -0.0958,0.04354 -0.15418,0.07874 -0.18503,0.09447 0.0337,-0.0081 0.10095,-0.01926 0.20212,-0.04833 0.32327,-0.09295 1.31397,-0.464747 2.00547,-0.677553 l 0.016,-0.0057 c 1.45262,-0.510923 2.31398,-0.901271 2.94219,-1.25864 0.11965,-0.0681 0.20964,-0.120232 0.27954,-0.163251 0.48125,0.177382 0.97271,0.366203 1.47968,0.574806 -0.005,0.0042 -0.008,0.0076 -0.0125,0.01218 -0.36247,0.337178 -1.06783,0.808615 -2.1672,1.192958 l -0.0125,0.0042 c -0.53187,0.208536 -1.32999,0.467675 -1.57513,0.569006 -0.0767,0.03176 -0.12344,0.05778 -0.14813,0.06929 0.027,-0.0057 0.0813,-0.0131 0.16264,-0.03373 0.25965,-0.06584 1.0543,-0.334142 1.60963,-0.485673 l 0.0127,-0.0042 c 1.16547,-0.367187 1.85519,-0.651479 2.35703,-0.914502 0.16016,-0.08393 0.25703,-0.136691 0.31352,-0.17564 0.56456,0.241145 1.13422,0.491017 1.71943,0.771975 -0.40678,0.389863 -1.12785,0.901784 -2.26195,1.403651 l -0.0153,0.0063 c -0.63174,0.305982 -1.60085,0.711701 -1.88995,0.857904 -0.0905,0.0458 -0.14287,0.08022 -0.17144,0.09627 0.0341,-0.01062 0.10385,-0.02808 0.20477,-0.06364 0.32242,-0.113534 1.2831,-0.527575 1.96847,-0.781055 l 0.0153,-0.0063 c 1.3092,-0.535907 2.10036,-0.926242 2.66337,-1.262095 0.19999,0.09931 0.3997,0.197747 0.60116,0.301848 0.38667,0.199787 0.76785,0.406999 1.14664,0.617875 -0.42917,0.341684 -1.06285,0.740208 -1.94976,1.132671 l -0.0153,0.0063 c -0.63173,0.305978 -1.60062,0.711574 -1.8897,0.857784 -0.0905,0.0458 -0.14312,0.08034 -0.17169,0.09639 0.0341,-0.01059 0.1041,-0.02823 0.20502,-0.06372 0.32242,-0.113539 1.28303,-0.527398 1.96837,-0.780886 l 0.0155,-0.0063 c 1.00731,-0.412331 1.70604,-0.73789 2.2328,-1.019556 0.52244,0.298423 1.03696,0.608239 1.54418,0.9286 0.003,0.01387 0.006,0.02833 0.009,0.04374 0.0546,0.308216 -0.18895,0.736352 -1.23194,1.077681 l -0.012,0.0042 c -0.46176,0.186157 -1.25661,0.415427 -1.4595,0.506049 -0.0635,0.02839 -0.0894,0.05186 -0.10725,0.06225 0.033,-0.005 0.10613,-0.01086 0.19799,-0.02888 0.2936,-0.05743 1.0654,-0.295316 1.67295,-0.428126 l 0.013,-0.0035 c 0.91572,-0.251348 1.46475,-0.460551 1.81033,-0.652403 0.96421,0.64557 1.90191,1.33055 2.80945,2.062078 l 0.018,0.01475 c 0.0322,0.02604 0.0617,0.05214 0.0937,0.07814 l 1.00036,-1.028057 c -0.0651,-0.05312 -0.12459,-0.10791 -0.19043,-0.160709 l -0.0193,-0.01526 c -1.15879,-0.927727 -2.36587,-1.736932 -3.59031,-2.444833 1e-4,-0.0028 0,-0.005 0,-0.0076 0.0276,-0.490557 -0.033,-1.161344 -0.28136,-2.289452 l -0.003,-0.01226 c -0.14838,-0.536448 -0.29455,-1.306466 -0.37033,-1.557096 -0.0238,-0.07844 -0.0476,-0.130413 -0.0571,-0.156525 0,0.02407 -0.004,0.06958 0.003,0.1442 0.0213,0.238338 0.18142,1.011422 0.24216,1.528111 l 0.003,0.01211 c 0.16739,0.962012 0.0454,1.620251 -0.13339,2.005055 -0.28574,-0.156969 -0.57204,-0.308275 -0.85871,-0.454732 -0.0127,-0.07865 -0.0559,-0.212518 -0.13844,-0.450729 -0.23251,-0.671705 -0.62386,-1.544222 -1.39108,-2.944199 l -0.009,-0.0152 c -0.38739,-0.651678 -0.89369,-1.617887 -1.07951,-1.919349 -0.0582,-0.09436 -0.1029,-0.153319 -0.12344,-0.183955 0.0128,0.03211 0.033,0.0956 0.0765,0.19271 0.13885,0.310232 0.65685,1.274256 0.96874,1.940033 l 0.008,0.01526 c 0.68817,1.345467 0.92016,2.356422 0.95085,2.938262 0.003,0.02396 0.003,0.04113 0.003,0.06288 -0.54094,-0.259785 -1.08126,-0.503587 -1.61931,-0.729307 -0.0213,-0.08312 -0.0614,-0.204631 -0.12601,-0.391556 -0.23251,-0.671707 -0.6239,-1.544228 -1.39107,-2.944202 l -0.009,-0.01547 c -0.3874,-0.651692 -0.89357,-1.617833 -1.07937,-1.919305 -0.0582,-0.09435 -0.1029,-0.153125 -0.12349,-0.183767 z"
         sodipodi:nodetypes="ccccscccsccscscsccsccscscsscscsccscsscsccscscccsccccscscccscscsscccccscsccsccccscccscscccscccscccccscccccssccssccccccccccccccscscsccccccscc" /><path
         id="path322-8"
         style="display:inline;opacity:0.2;fill:none;stroke:#000000;stroke-width:0.353814;stroke-linecap:round;stroke-linejoin:round;stroke-dasharray:none;stroke-opacity:0.989247"
         d="m 117.98351,-76.563302 c 0.43567,-11.194673 -13.17717,-12.205698 -23.5312,-6.80773 3.71141,9.333365 17.5792,12.539013 22.68494,8.422315"
         sodipodi:nodetypes="ccc" /></g></g></svg>
